<svg xmlns="http://www.w3.org/2000/svg" enable-background="new 0 0 34 34" viewBox="0 0 34 34"><path fill="#F8AB1F" d="M21.58885,19.01508c0,1.37247-1.50474,0.90942-1.5722,2.23184
				c-0.04017,0.76886-0.77596,1.32498-1.54244,1.11592c-1.13664-0.32471-1.19031,0.8729-2.22191,0.8729
				c-1.0566,0-1.05529-1.2076-2.2269-0.8729c-0.7668,0.20915-1.50229-0.34736-1.54244-1.11592
				c-0.05305-1.30044-1.5722-0.87358-1.5722-2.23184c0-0.62757,0.40173-0.71174,0.40173-1.33414
				c0-0.61115-0.40173-0.70627-0.40173-1.32918c0-1.35858,1.51912-0.93092,1.5722-2.23184
				c0.03472-0.6646,0.58523-1.16057,1.21512-1.16057c0.29002,0,0.33432,0.08434,0.64475,0.08434
				c1.00326,0,0.90614-0.90762,1.90948-0.90762c1.05149,0,1.03954,1.18239,2.22191,0.86794
				c0.76681-0.20915,1.50229,0.34731,1.54244,1.11592c0.06747,1.32261,1.5722,0.85911,1.5722,2.23184
				c0,0.62532-0.39676,0.70389-0.39676,1.32918C21.19209,18.31257,21.58885,18.38995,21.58885,19.01508z"/><path fill="#D8840B" d="M21.58395,19.01031c0,1.38917-1.48918,0.9184-1.57001,2.23999
				c-0.03354,0.73723-0.73503,1.32927-1.54004,1.11005c-1.13139-0.33983-1.19066,0.88-2.21997,0.88
				c-1.04671,0-1.0381-1.20542-2.22998-0.88c-0.11005,0.02997-0.22003,0.04999-0.33002,0.04999
				c-0.54999,0-1.03998-0.38-1.17999-0.91998l7.48999-7.49005c0,1.45238,1.58002,0.9451,1.58002,2.35004
				c0,0.65829-0.39001,0.69819-0.39001,1.33002C21.19394,18.32532,21.58395,18.36144,21.58395,19.01031z"/><path fill="#F7BC5E" d="M12.74981,17.68593c0,4.62754,7,4.63387,7,0C19.74981,13.05852,12.74981,13.05192,12.74981,17.68593z"/><path d="M16.3085,33.18974c-6.35742,0-12.01563-3.80469-14.41504-9.69336l0.92578-0.37695
				c2.24512,5.50977,7.54004,9.07031,13.48926,9.07031c3.95313,0,7.65527-1.5708,10.42383-4.42285l0.7168,0.69629
				C24.49112,31.51103,20.53409,33.18974,16.3085,33.18974z"/><path fill="#511310" d="M1.75003 17.63073h-1c0-8.5791 6.97949-15.55908 15.55859-15.55908 2.83789 0 5.61523.77148 8.03223 2.23096l-.51758.85645c-2.26074-1.36572-4.85938-2.0874-7.51465-2.0874C8.28128 3.07165 1.75003 9.6029 1.75003 17.63073zM30.24417 24.51891l-.89648-.44434c1.00879-2.0332 1.51953-4.20166 1.51953-6.44385 0-3.34961-1.10547-6.49805-3.19727-9.10498l.7793-.62598c2.2041 2.74707 3.41797 6.20264 3.41797 9.73096C31.86722 20.02868 31.32132 22.34606 30.24417 24.51891z"/><path fill="#511310" d="M16.25003 27.78649v-1c5.0498 0 9.1582-4.1084 9.1582-9.15869s-4.1084-9.15869-9.1582-9.15869c-.55273 0-1.10742.05322-1.69531.16357l-.18359-.9834c.64063-.11963 1.27246-.18018 1.87891-.18018 5.60156 0 10.1582 4.55713 10.1582 10.15869S21.85159 27.78649 16.25003 27.78649zM11.98538 26.85046c-3.58105-1.6582-5.89453-5.27832-5.89453-9.22266 0-3.25781 1.58789-6.34228 4.24707-8.25098l.58398.8125c-5.7629 4.13512-4.81213 12.83846 1.4834 15.75391L11.98538 26.85046z"/><circle cx="14.679" cy="8.067" r="1.57" fill="#FE5436"/><circle cx="12.324" cy="26.18" r="1.57" fill="#2E8FD8"/><circle cx="18.791" cy="2.693" r="1.882" fill="#1FA6AD"/><circle cx="31.368" cy="16.432" r="1.882" fill="#9581CC"/></svg>